<?xml version="1.0" encoding="utf-8"?>
<!-- Generator: Adobe Illustrator 25.3.0, SVG Export Plug-In . SVG Version: 6.00 Build 0)  -->
<svg version="1.1" id="Layer_1" xmlns="http://www.w3.org/2000/svg" xmlns:xlink="http://www.w3.org/1999/xlink" x="0px" y="0px"
	 viewBox="0 0 100 100" style="enable-background:new 0 0 100 100;" xml:space="preserve">
<style type="text/css">
	.st0{fill:#FFB793;stroke:#FFB793;stroke-width:0.25;stroke-miterlimit:10;}
</style>
<g>
	<path class="st0" d="M12.2,17.5l4,7l4-7h1.2v10.3H20v-7.6l-3.3,5.9h-1l-3.3-5.9v7.6H11V17.5H12.2z"/>
	<path class="st0" d="M33.8,25.3h-4.9l-1,2.5h-1.4l4.2-10.3h1.4l4.2,10.3h-1.5L33.8,25.3z M33.3,24.1l-2-5l-2,5H33.3z"/>
	<path class="st0" d="M45,17.5c0.9,0,1.6,0.1,2.3,0.4c0.6,0.3,1.1,0.7,1.5,1.3c0.3,0.5,0.5,1.2,0.5,1.9s-0.2,1.3-0.5,1.9
		c-0.3,0.5-0.8,1-1.5,1.3c-0.6,0.3-1.4,0.4-2.3,0.4h-2.3v3.1h-1.3V17.5H45z M47.1,22.8c0.5-0.4,0.8-1,0.8-1.7s-0.3-1.3-0.8-1.7
		c-0.5-0.4-1.3-0.6-2.2-0.6h-2.2v4.7h2.2C45.9,23.4,46.6,23.2,47.1,22.8z"/>
	<path class="st0" d="M56.7,27.4c-0.8-0.5-1.5-1.1-1.9-1.9c-0.5-0.8-0.7-1.7-0.7-2.8c0-1,0.2-1.9,0.7-2.8c0.5-0.8,1.1-1.5,1.9-1.9
		c0.8-0.5,1.8-0.7,2.8-0.7s2,0.2,2.8,0.7s1.5,1.1,1.9,1.9c0.5,0.8,0.7,1.7,0.7,2.8c0,1-0.2,1.9-0.7,2.8c-0.5,0.8-1.1,1.5-1.9,1.9
		c-0.8,0.5-1.8,0.7-2.8,0.7C58.5,28,57.5,27.8,56.7,27.4z M61.6,26.3c0.6-0.4,1.1-0.8,1.5-1.5c0.4-0.6,0.5-1.3,0.5-2.1
		s-0.2-1.5-0.5-2.1c-0.4-0.6-0.8-1.1-1.5-1.5c-0.6-0.4-1.3-0.5-2.1-0.5s-1.5,0.2-2.1,0.5c-0.6,0.4-1.1,0.8-1.5,1.5
		c-0.4,0.6-0.5,1.3-0.5,2.1s0.2,1.5,0.5,2.1c0.4,0.6,0.8,1.1,1.5,1.5c0.6,0.4,1.3,0.5,2.1,0.5S61,26.6,61.6,26.3z"/>
</g>
<g>
	<path class="st0" d="M49.1,50.4h-4.9l-1,2.5h-1.4L46,42.6h1.4l4.2,10.3h-1.5L49.1,50.4z M48.6,49.2l-2-5l-2,5H48.6z"/>
	<path class="st0" d="M63.6,52.9l-2.3-3.7c-0.3,0-0.4,0-0.6,0h-2.5v3.6h-1.3V42.7h3.9c0.9,0,1.6,0.1,2.2,0.4
		c0.6,0.3,1.1,0.7,1.4,1.2c0.3,0.5,0.5,1.1,0.5,1.8s-0.2,1.4-0.6,1.9s-0.9,0.9-1.6,1.2l2.6,3.9h-1.7V52.9z M62.7,47.6
		c0.5-0.4,0.8-0.9,0.8-1.6s-0.3-1.2-0.8-1.6c-0.5-0.4-1.2-0.5-2.1-0.5h-2.4v4.2h2.4C61.5,48.1,62.2,47.9,62.7,47.6z"/>
	<path class="st0" d="M74.7,43.9V53h-1.3v-9.1h-3.7v-1.2h8.7v1.2H74.7z"/>
	<path class="st0" d="M86.9,42.8c0.6,0.3,1.1,0.6,1.4,1.1c0.4,0.5,0.6,1,0.6,1.6h-1.4c-0.1-0.6-0.4-1-0.8-1.4
		c-0.5-0.4-1.1-0.5-1.9-0.5s-1.4,0.1-1.9,0.4c-0.5,0.3-0.7,0.7-0.7,1.1c0,0.4,0.1,0.6,0.3,0.9c0.2,0.2,0.5,0.4,1,0.6
		c0.4,0.2,1.1,0.3,1.8,0.5c1.2,0.3,2.1,0.6,2.7,1.1s0.8,1.1,0.8,1.9c0,0.6-0.2,1.1-0.5,1.6c-0.4,0.4-0.9,0.8-1.5,1s-1.3,0.4-2.1,0.4
		c-0.8,0-1.5-0.1-2.1-0.4c-0.6-0.3-1.1-0.7-1.5-1.2s-0.6-1.1-0.6-1.7H82c0.1,0.6,0.4,1.1,0.9,1.5s1.2,0.6,2.1,0.6
		c0.5,0,1-0.1,1.4-0.2c0.4-0.1,0.7-0.4,0.9-0.6c0.2-0.3,0.3-0.6,0.3-0.9c0-0.4-0.1-0.7-0.3-0.9c-0.2-0.2-0.5-0.5-1-0.6
		c-0.4-0.2-1.1-0.3-1.9-0.5c-1.2-0.2-2.1-0.6-2.7-1.1s-0.9-1.1-0.9-2c0-0.6,0.2-1,0.5-1.5c0.3-0.4,0.8-0.7,1.4-1
		c0.6-0.2,1.3-0.3,2-0.3C85.6,42.4,86.3,42.5,86.9,42.8z"/>
</g>
<g>
	<path class="st0" d="M13.6,78.8c-0.8-0.5-1.5-1.1-1.9-1.9c-0.5-0.8-0.7-1.7-0.7-2.8c0-1,0.2-1.9,0.7-2.8c0.5-0.8,1.1-1.5,1.9-1.9
		c0.8-0.5,1.7-0.7,2.8-0.7c0.9,0,1.6,0.2,2.3,0.5c0.7,0.3,1.3,0.7,1.7,1.3c0.5,0.6,0.8,1.2,1,1.9H20c-0.2-0.7-0.7-1.3-1.3-1.8
		c-0.6-0.4-1.4-0.7-2.3-0.7c-0.8,0-1.5,0.2-2.1,0.5c-0.6,0.4-1.1,0.8-1.5,1.5c-0.4,0.6-0.5,1.3-0.5,2.1c0,0.8,0.2,1.5,0.5,2.1
		c0.4,0.6,0.8,1.1,1.5,1.5c0.6,0.4,1.3,0.5,2.1,0.5c0.6,0,1.2-0.1,1.7-0.3c0.5-0.2,1-0.5,1.3-0.9s0.6-0.8,0.7-1.3h1.4
		c-0.2,0.7-0.5,1.4-0.9,2c-0.5,0.6-1.1,1-1.8,1.4c-0.7,0.3-1.5,0.5-2.4,0.5C15.4,79.5,14.5,79.3,13.6,78.8z"/>
	<path class="st0" d="M33.1,69v1.2h-6v3.2h5.5v1.2h-5.5v3.5h6.1v1.2h-7.4V69H33.1z"/>
	<path class="st0" d="M38.8,69l6.2,8v-8.1h1.4v10.3h-1.3l-6.2-8v8.1h-1.3V69H38.8z"/>
	<path class="st0" d="M55.6,70.2v9.1h-1.3v-9.1h-3.7V69h8.7v1.2H55.6z"/>
	<path class="st0" d="M70.8,69v1.2h-6v3.2h5.5v1.2h-5.5v3.5h6.1v1.2h-7.4V69H70.8z"/>
	<path class="st0" d="M82,79.3l-2.3-3.7c-0.3,0-0.4,0-0.6,0h-2.5v3.6h-1.3V69h3.9c0.9,0,1.6,0.1,2.2,0.4s1.1,0.7,1.4,1.2
		s0.5,1.1,0.5,1.8c0,0.7-0.2,1.4-0.6,1.9s-0.9,0.9-1.6,1.2l2.6,3.9L82,79.3L82,79.3z M81.1,73.9c0.5-0.4,0.8-0.9,0.8-1.6
		s-0.3-1.2-0.8-1.6s-1.2-0.5-2.1-0.5h-2.4v4.2H79C79.9,74.4,80.6,74.3,81.1,73.9z"/>
</g>
</svg>
