<?xml version="1.0" encoding="utf-8"?>
<!-- Generator: Adobe Illustrator 25.3.0, SVG Export Plug-In . SVG Version: 6.00 Build 0)  -->
<svg version="1.1" xmlns="http://www.w3.org/2000/svg" xmlns:xlink="http://www.w3.org/1999/xlink" x="0px" y="0px"
	 viewBox="0 0 16 16" style="enable-background:new 0 0 16 16;" xml:space="preserve">
<style type="text/css">
	.st0{fill:#ECE4EC;}
	.st1{display:none;}
	.st2{display:inline;fill:#ECE4EC;}
</style>
<g id="Layer_1">
	<path class="st0" d="M13.52,7.05c0.65,0.45,0.65,1.45,0,1.9l-5.08,3.55l-4.74,3.31C2.97,16.31,2,15.77,2,14.86V8V1.14
		c0-0.91,0.97-1.45,1.69-0.95l4.74,3.31L13.52,7.05z"/>
</g>
<g id="Layer_2" class="st1">
	<path class="st2" d="M4.59,16H4.41C3.63,16,3,15.37,3,14.59V1.41C3,0.63,3.63,0,4.41,0h0.17C5.37,0,6,0.63,6,1.41v13.17
		C6,15.37,5.37,16,4.59,16z"/>
	<path class="st2" d="M11.59,16h-0.17C10.63,16,10,15.37,10,14.59V1.41C10,0.63,10.63,0,11.41,0h0.17C12.37,0,13,0.63,13,1.41v13.17
		C13,15.37,12.37,16,11.59,16z"/>
</g>
</svg>
