<?xml version="1.0" encoding="utf-8"?>
<!-- Generator: Adobe Illustrator 25.3.0, SVG Export Plug-In . SVG Version: 6.00 Build 0)  -->
<svg version="1.1" xmlns="http://www.w3.org/2000/svg" xmlns:xlink="http://www.w3.org/1999/xlink" x="0px" y="0px"
	 viewBox="0 0 60 60" style="enable-background:new 0 0 60 60;" xml:space="preserve">
<style type="text/css">
	.st0{fill:#FFFFFF;stroke:#000000;stroke-width:2;stroke-miterlimit:10;}
	.st1{font-family:'NanumGothicBold';}
	.st2{font-size:8.5717px;}
</style>
<g id="Layer_2">
	<path class="st0" d="M52.7,37.9H7.6c-1.8,0-3.3-1.5-3.3-3.3V18.8c0-1.8,1.5-3.3,3.3-3.3h45.1c1.8,0,3.3,1.5,3.3,3.3v15.7
		C56,36.4,54.5,37.9,52.7,37.9z"/>
	<path class="st0" d="M56.8,45.5H3.2c-1.2,0-2.2-1-2.2-2.2v-5.6c0-1.2,1-2.2,2.2-2.2h53.6c1.2,0,2.2,1,2.2,2.2v5.6
		C59,44.5,58,45.5,56.8,45.5z"/>
</g>
<g id="Layer_3">
	<text transform="matrix(1 0 0 1 10.0697 28.7144)" class="st1 st2">RESERVED</text>
</g>
</svg>
