<?xml version="1.0" encoding="utf-8"?>
<!-- Generator: Adobe Illustrator 25.3.0, SVG Export Plug-In . SVG Version: 6.00 Build 0)  -->
<svg version="1.1" xmlns="http://www.w3.org/2000/svg" xmlns:xlink="http://www.w3.org/1999/xlink" x="0px" y="0px"
	 viewBox="0 0 16 16" style="enable-background:new 0 0 16 16;" xml:space="preserve">
<style type="text/css">
	.st0{display:none;}
	.st1{display:inline;fill:#ECE4EC;}
	.st2{fill:#ECE4EC;}
</style>
<g id="Layer_1" class="st0">
	<path class="st1" d="M13.52,7.05c0.65,0.45,0.65,1.45,0,1.9l-5.08,3.55l-4.74,3.31C2.97,16.31,2,15.77,2,14.86V8V1.14
		c0-0.91,0.97-1.45,1.69-0.95l4.74,3.31L13.52,7.05z"/>
</g>
<g id="Layer_2">
	<path class="st2" d="M3.82,16H3.18C1.98,16,1,15.02,1,13.82V2.18C1,0.98,1.98,0,3.18,0h0.64C5.02,0,6,0.98,6,2.18v11.64
		C6,15.02,5.02,16,3.82,16z"/>
	<path class="st2" d="M12.82,16h-0.64c-1.2,0-2.18-0.98-2.18-2.18V2.18C10,0.98,10.98,0,12.18,0h0.64C14.02,0,15,0.98,15,2.18v11.64
		C15,15.02,14.02,16,12.82,16z"/>
</g>
</svg>
